<svg xmlns="http://www.w3.org/2000/svg" width="512" height="512" viewBox="0 0 512 512">
  <defs>
    <linearGradient id="bg" x1="0%" y1="0%" x2="100%" y2="100%">
      <stop offset="0%" style="stop-color:#0F766E"/>
      <stop offset="100%" style="stop-color:#0284C7"/>
    </linearGradient>
  </defs>
  <rect width="512" height="512" rx="80" fill="url(#bg)"/>
  <!-- Flask icon -->
  <path d="M256 96 L256 220 L180 320 C168 338 168 362 180 380 L200 410 C214 430 234 442 256 442 C278 442 298 430 312 410 L332 380 C344 362 344 338 332 320 L256 220" 
        fill="none" stroke="white" stroke-width="12" stroke-linecap="round" stroke-linejoin="round"/>
  <line x1="180" y1="320" x2="332" y2="320" stroke="white" stroke-width="10" stroke-linecap="round"/>
  <line x1="224" y1="140" x2="288" y2="140" stroke="white" stroke-width="10" stroke-linecap="round"/>
  <circle cx="256" cy="394" r="10" fill="white" opacity="0.8"/>
  <circle cx="234" cy="362" r="8" fill="white" opacity="0.6"/>
  <circle cx="278" cy="374" r="9" fill="white" opacity="0.7"/>
  <!-- Text -->
  <text x="256" y="490" text-anchor="middle" font-family="Arial, sans-serif" font-weight="bold" font-size="28" fill="white" opacity="0.9">MediLab</text>
</svg>
