<svg xmlns="http://www.w3.org/2000/svg" width="192" height="192" viewBox="0 0 192 192">
  <defs>
    <linearGradient id="bg" x1="0%" y1="0%" x2="100%" y2="100%">
      <stop offset="0%" style="stop-color:#0F766E"/>
      <stop offset="100%" style="stop-color:#0284C7"/>
    </linearGradient>
  </defs>
  <rect width="192" height="192" rx="32" fill="url(#bg)"/>
  <!-- Flask icon -->
  <path d="M96 36 L96 80 L68 120 C63 127 63 136 68 142 L76 154 C81 160 88 164 96 164 C104 164 111 160 116 154 L124 142 C129 136 129 127 124 120 L96 80" 
        fill="none" stroke="white" stroke-width="5" stroke-linecap="round" stroke-linejoin="round"/>
  <line x1="68" y1="120" x2="124" y2="120" stroke="white" stroke-width="4" stroke-linecap="round"/>
  <line x1="84" y1="52" x2="108" y2="52" stroke="white" stroke-width="4" stroke-linecap="round"/>
  <circle cx="96" cy="148" r="4" fill="white" opacity="0.8"/>
  <circle cx="88" cy="136" r="3" fill="white" opacity="0.6"/>
  <circle cx="104" cy="140" r="3.5" fill="white" opacity="0.7"/>
</svg>
